<svg xmlns="http://www.w3.org/2000/svg" xmlns:xlink="http://www.w3.org/1999/xlink" width="500" zoomAndPan="magnify" viewBox="0 0 375 374.999991" height="500" preserveAspectRatio="xMidYMid meet" version="1.0"><path fill="#007775" d="M 189.902344 4.535156 C 190.410156 4.535156 190.921875 4.535156 191.445312 4.535156 C 199.578125 4.546875 207.484375 4.957031 215.515625 6.320312 C 216.101562 6.417969 216.6875 6.511719 217.289062 6.609375 C 248.5 11.679688 278.140625 23.761719 302.855469 43.675781 C 303.359375 44.074219 303.863281 44.46875 304.378906 44.878906 C 313.796875 52.421875 322.960938 61.027344 330.320312 70.59375 C 330.90625 71.320312 331.488281 72.046875 332.074219 72.773438 C 339.230469 81.710938 345.3125 91.226562 350.648438 101.355469 C 350.839844 101.714844 351.03125 102.078125 351.226562 102.449219 C 364.796875 128.28125 371.636719 156.589844 371.660156 185.742188 C 371.660156 186.488281 371.660156 186.488281 371.660156 187.246094 C 371.648438 195.710938 371.183594 203.941406 369.871094 212.316406 C 369.777344 212.9375 369.683594 213.558594 369.585938 214.199219 C 368.125 223.640625 366.003906 232.824219 363.28125 241.980469 C 363.066406 242.710938 363.066406 242.710938 362.847656 243.453125 C 359.175781 255.796875 353.863281 268.214844 347.351562 279.332031 C 347.09375 279.773438 346.835938 280.210938 346.570312 280.667969 C 338.136719 294.949219 327.949219 307.527344 316.289062 319.28125 C 315.511719 320.0625 314.742188 320.84375 313.96875 321.628906 C 310.621094 324.980469 307.125 328.03125 303.40625 330.96875 C 302.996094 331.296875 302.585938 331.628906 302.164062 331.96875 C 279.421875 350.230469 253.082031 362.882812 224.476562 368.734375 C 223.976562 368.835938 223.472656 368.9375 222.957031 369.042969 C 221.214844 369.382812 219.464844 369.679688 217.710938 369.96875 C 217.105469 370.074219 217.105469 370.074219 216.484375 370.179688 C 208.40625 371.535156 200.476562 371.875 192.296875 371.832031 C 190.320312 371.824219 188.34375 371.832031 186.371094 371.84375 C 161.195312 371.863281 136.585938 365.957031 113.890625 355.136719 C 113.203125 354.8125 113.203125 354.8125 112.5 354.480469 C 89.890625 343.695312 68 327.683594 51.820312 308.445312 C 51.566406 308.148438 51.316406 307.851562 51.058594 307.542969 C 27.636719 279.558594 12.84375 245.257812 8.421875 209.019531 C 8.359375 208.503906 8.292969 207.984375 8.226562 207.453125 C 2.675781 160.59375 16.175781 112.355469 44.816406 74.917969 C 52.097656 65.734375 59.933594 56.796875 68.847656 49.167969 C 69.347656 48.726562 69.851562 48.289062 70.367188 47.835938 C 103.167969 19.242188 146.714844 4.566406 189.902344 4.535156 Z M 189.902344 4.535156 " fill-opacity="1" fill-rule="nonzero"/><path fill="#faf9f6" d="M 252.867188 33.789062 C 253.296875 33.957031 253.726562 34.128906 254.167969 34.304688 C 265.796875 38.941406 276.21875 45.183594 286.375 52.464844 C 286.699219 52.695312 287.019531 52.925781 287.351562 53.160156 C 299.105469 61.617188 310.433594 71.796875 319.335938 83.226562 C 319.820312 83.824219 320.300781 84.421875 320.785156 85.019531 C 335.902344 103.769531 346.007812 125.832031 351.746094 149.144531 C 351.914062 149.824219 352.082031 150.5 352.253906 151.199219 C 357.253906 172.988281 360.488281 208.015625 350.097656 228.796875 C 347.96875 228.085938 347.722656 227.289062 346.5625 225.394531 C 344.824219 222.710938 342.96875 220.28125 340.863281 217.878906 C 337.824219 214.410156 334.953125 210.84375 332.136719 207.191406 C 331.460938 206.324219 330.765625 205.464844 330.074219 204.609375 C 315.914062 186.886719 308.011719 165.585938 305.601562 143.101562 C 303.746094 144.140625 302.316406 145.1875 300.863281 146.742188 C 298.714844 148.945312 296.417969 150.875 294.019531 152.796875 C 292.945312 153.664062 291.882812 154.546875 290.839844 155.449219 C 282.132812 162.933594 273.460938 168.4375 261.671875 167.910156 C 256.308594 167.484375 252.496094 163.988281 249.023438 160.128906 C 239.957031 147.972656 241.625 131.015625 243.617188 116.863281 C 245.066406 107.300781 247.175781 97.929688 250.121094 88.71875 C 250.847656 88.71875 251.570312 88.71875 252.320312 88.71875 C 253.261719 89.664062 252.964844 90.863281 252.972656 92.152344 C 252.910156 98.722656 252.0625 105.25 251.355469 111.773438 C 251.152344 113.664062 250.953125 115.550781 250.753906 117.4375 C 250.605469 118.828125 250.453125 120.21875 250.296875 121.613281 C 249.097656 132.734375 248.199219 145.785156 255.511719 155.1875 C 257.871094 157.648438 260.558594 159.113281 263.992188 159.308594 C 276.199219 158.65625 286.488281 147.992188 295.164062 140.355469 C 295.484375 140.078125 295.804688 139.796875 296.136719 139.511719 C 300.039062 136.097656 303.488281 132.78125 306.152344 128.269531 C 306.375 127.894531 306.601562 127.515625 306.832031 127.125 C 310.445312 120.484375 310.351562 112.066406 308.625 104.855469 C 303.996094 89.636719 292.773438 77.460938 279 69.855469 C 259.605469 59.601562 238.277344 59.148438 217.445312 65.21875 C 206.332031 68.679688 194.414062 74.207031 188.597656 84.875 C 186.894531 88.242188 185.410156 91.617188 184.238281 95.207031 C 182.382812 100.421875 178.664062 103.421875 173.765625 105.75 C 168.816406 107.84375 163.71875 109.484375 158.589844 111.085938 C 157.957031 111.28125 157.957031 111.28125 157.316406 111.484375 C 155.191406 112.144531 153.070312 112.796875 150.941406 113.441406 C 142.179688 116.011719 142.179688 116.011719 134.765625 121.128906 C 133.382812 123.898438 133.894531 127.9375 134.554688 130.875 C 135.875 134.703125 137.785156 138.308594 139.636719 141.898438 C 140.414062 143.40625 141.152344 144.925781 141.855469 146.464844 C 146.707031 156.929688 154.066406 164.148438 164.976562 168.371094 C 173.855469 171.464844 182.273438 172.316406 191.617188 172.4375 C 198.652344 172.535156 204.292969 173.144531 209.472656 178.257812 C 216.960938 186.96875 217.757812 197.488281 217.164062 208.46875 C 216.230469 220.117188 213.128906 230.765625 209.066406 241.652344 C 205.367188 251.582031 202.75 261.695312 201.234375 272.191406 C 201.179688 272.539062 201.128906 272.882812 201.078125 273.238281 C 199.011719 288.992188 200.976562 305.429688 205.628906 320.53125 C 205.753906 320.949219 205.878906 321.371094 206.011719 321.800781 C 209.050781 331.714844 213.59375 341.386719 218.882812 350.296875 C 219.359375 351.292969 219.359375 351.292969 219.359375 352.941406 C 184.300781 360.476562 147.136719 354.101562 115.539062 337.558594 C 114.800781 337.019531 114.066406 336.472656 113.34375 335.910156 C 114.496094 331.054688 115.886719 326.296875 117.359375 321.527344 C 119.613281 314.121094 121.621094 306.6875 123.230469 299.109375 C 123.328125 298.667969 123.425781 298.226562 123.527344 297.769531 C 127.0625 281.28125 125.765625 263.179688 119.34375 247.625 C 118.261719 244.957031 117.246094 242.265625 116.226562 239.574219 C 115.90625 238.753906 115.90625 238.753906 115.578125 237.914062 C 113.609375 232.742188 111.421875 226.433594 113.210938 220.921875 C 114.222656 218.714844 114.90625 217.660156 117.1875 216.710938 C 118.484375 216.527344 118.484375 216.527344 119.914062 216.460938 C 120.703125 216.410156 120.703125 216.410156 121.511719 216.363281 C 122.34375 216.3125 122.34375 216.3125 123.195312 216.265625 C 131.644531 215.640625 138.425781 213.292969 144.449219 207.097656 C 149.265625 201.472656 152.519531 193.796875 153.011719 186.359375 C 152.835938 184.140625 151.742188 182.976562 150.144531 181.554688 C 149.261719 180.921875 148.371094 180.304688 147.46875 179.699219 C 141.710938 175.757812 139.335938 170.652344 136.414062 164.523438 C 130.875 152.953125 121.957031 147.808594 110.300781 143.566406 C 107.152344 142.484375 103.949219 141.652344 100.707031 140.90625 C 100.601562 140.363281 100.601562 140.363281 100.492188 139.808594 C 99.773438 136.207031 99.054688 132.601562 98.328125 129 C 97.996094 127.351562 97.671875 125.703125 97.347656 124.050781 C 97.164062 123.132812 96.980469 122.21875 96.792969 121.300781 C 96.714844 120.882812 96.632812 120.46875 96.550781 120.039062 C 96.054688 117.617188 95.320312 115.597656 94.117188 113.4375 C 88.503906 114.121094 84.0625 120.011719 80.695312 124.214844 C 75.015625 131.558594 71.308594 139.769531 68.871094 148.664062 C 68.773438 149.019531 68.675781 149.378906 68.574219 149.746094 C 68.3125 150.746094 68.082031 151.753906 67.851562 152.761719 C 67.058594 155.046875 65.902344 156.492188 64.351562 158.3125 C 55.851562 168.753906 53.394531 180.363281 51.777344 193.425781 C 50.769531 201.480469 49.613281 209.429688 47.425781 217.257812 C 47.242188 217.917969 47.058594 218.574219 46.871094 219.25 C 44.3125 227.265625 39.828125 237.261719 34.242188 243.625 C 33.695312 243.625 33.152344 243.625 32.59375 243.625 C 27.859375 230.558594 25.109375 217.355469 23.804688 203.527344 C 23.75 203.039062 23.699219 202.546875 23.648438 202.046875 C 22.304688 188.296875 22.566406 173.730469 24.902344 160.128906 C 25.007812 159.507812 25.113281 158.886719 25.222656 158.246094 C 30.671875 127.476562 43.832031 100.015625 64.453125 76.632812 C 64.707031 76.347656 64.960938 76.058594 65.222656 75.761719 C 71.808594 68.324219 79.042969 61.726562 86.976562 55.761719 C 87.296875 55.515625 87.621094 55.265625 87.953125 55.011719 C 111.269531 37.171875 139.320312 26.34375 168.273438 22.253906 C 168.96875 22.152344 168.96875 22.152344 169.679688 22.050781 C 197.761719 18.273438 226.769531 23.195312 252.867188 33.789062 Z M 252.867188 33.789062 " fill-opacity="1" fill-rule="nonzero"/><path fill="#f7f8f6" d="M 204.046875 96.648438 C 207.632812 97.171875 210.152344 99.167969 212.527344 101.835938 C 212.789062 102.21875 213.050781 102.605469 213.316406 103 C 212.484375 105.25 210.972656 106.769531 208.921875 107.945312 C 207.230469 108.492188 205.746094 108.71875 203.980469 108.496094 C 202.117188 107.105469 201.003906 105.6875 200.132812 103.550781 C 200.089844 102.3125 200.089844 102.3125 200.238281 101.042969 C 200.277344 100.625 200.320312 100.203125 200.363281 99.773438 C 200.953125 97.621094 201.898438 97.035156 204.046875 96.648438 Z M 204.046875 96.648438 " fill-opacity="1" fill-rule="nonzero"/><path fill="#f4f8f5" d="M 122.679688 169.46875 C 124.554688 170.804688 125.800781 171.949219 127.074219 173.863281 C 127.144531 175.613281 127.144531 175.613281 127.074219 177.160156 C 124.605469 178.121094 122.582031 178.59375 119.933594 178.257812 C 117.929688 176.820312 117.296875 175.902344 116.636719 173.519531 C 116.636719 171.667969 116.636719 171.667969 117.359375 170.636719 C 119.21875 169.394531 120.4375 169.210938 122.679688 169.46875 Z M 122.679688 169.46875 " fill-opacity="1" fill-rule="nonzero"/><path fill="#0e6462" d="M 68.296875 49.71875 C 68.660156 49.898438 69.023438 50.082031 69.398438 50.265625 C 67.910156 52.25 66.402344 53.695312 64.453125 55.210938 C 63.578125 55.933594 62.707031 56.667969 61.84375 57.410156 C 61.417969 57.769531 60.988281 58.132812 60.546875 58.507812 C 59.472656 59.644531 59.164062 60.273438 58.960938 61.804688 C 58.597656 61.621094 58.234375 61.441406 57.863281 61.253906 C 58.121094 58.863281 59.558594 57.726562 61.226562 56.105469 C 61.496094 55.839844 61.769531 55.574219 62.046875 55.300781 C 64.0625 53.347656 66.132812 51.496094 68.296875 49.71875 Z M 68.296875 49.71875 " fill-opacity="1" fill-rule="nonzero"/><path fill="#eaf2f1" d="M 251.21875 88.71875 C 251.765625 88.902344 252.308594 89.082031 252.867188 89.269531 C 252.898438 90.425781 252.917969 91.582031 252.9375 92.738281 C 252.949219 93.378906 252.960938 94.023438 252.976562 94.6875 C 252.867188 96.410156 252.867188 96.410156 251.769531 98.058594 C 251.675781 96.8125 251.585938 95.5625 251.496094 94.316406 C 251.445312 93.621094 251.394531 92.925781 251.339844 92.210938 C 251.265625 91.046875 251.21875 89.882812 251.21875 88.71875 Z M 251.21875 88.71875 " fill-opacity="1" fill-rule="nonzero"/><path fill="#0f605c" d="M 29.296875 99.15625 C 29.660156 99.699219 30.023438 100.246094 30.394531 100.804688 C 29.851562 100.984375 29.308594 101.167969 28.746094 101.355469 C 28.703125 101.75 28.65625 102.148438 28.609375 102.554688 C 28.117188 104.402344 27.257812 105.425781 26 106.847656 C 26.320312 104.78125 26.910156 103.257812 27.957031 101.457031 C 28.207031 101.023438 28.457031 100.589844 28.714844 100.140625 C 29.003906 99.652344 29.003906 99.652344 29.296875 99.15625 Z M 29.296875 99.15625 " fill-opacity="1" fill-rule="nonzero"/><path fill="#055b58" d="M 123.230469 17.859375 C 122.542969 18.214844 121.859375 18.570312 121.171875 18.921875 C 120.789062 19.121094 120.40625 19.316406 120.011719 19.519531 C 118.875 20.035156 117.867188 20.398438 116.636719 20.605469 C 116.277344 20.421875 115.914062 20.242188 115.539062 20.054688 C 116.238281 19.699219 116.933594 19.34375 117.632812 18.992188 C 118.023438 18.792969 118.410156 18.59375 118.8125 18.390625 C 121.292969 17.210938 121.292969 17.210938 123.230469 17.859375 Z M 123.230469 17.859375 " fill-opacity="1" fill-rule="nonzero"/><path fill="#025958" d="M 8.972656 207.371094 C 9.808594 208 9.808594 208 10.621094 209.019531 C 10.660156 210.503906 10.660156 210.503906 10.449219 212.144531 C 10.351562 212.964844 10.351562 212.964844 10.25 213.796875 C 10.191406 214.214844 10.132812 214.632812 10.070312 215.0625 C 9.890625 215.0625 9.707031 215.0625 9.523438 215.0625 C 8.859375 212.496094 8.921875 210 8.972656 207.371094 Z M 8.972656 207.371094 " fill-opacity="1" fill-rule="nonzero"/><path fill="#035754" d="M 71.046875 140.355469 C 71.925781 142.554688 71.269531 144.238281 70.496094 146.398438 C 69.953125 146.667969 69.953125 146.667969 69.398438 146.945312 C 69.675781 144.574219 70.054688 142.535156 71.046875 140.355469 Z M 71.046875 140.355469 " fill-opacity="1" fill-rule="nonzero"/><path fill="#065c5a" d="M 85.328125 36.535156 C 85.328125 37.078125 85.328125 37.621094 85.328125 38.183594 C 83.679688 39.382812 83.679688 39.382812 82.03125 40.378906 C 81.667969 40.199219 81.304688 40.015625 80.933594 39.832031 C 82.382812 38.742188 83.832031 37.65625 85.328125 36.535156 Z M 85.328125 36.535156 " fill-opacity="1" fill-rule="nonzero"/><path fill="#f0f6f4" d="M 122.132812 358.984375 C 123.648438 359.269531 125.058594 359.59375 126.527344 360.082031 C 126.527344 360.445312 126.527344 360.808594 126.527344 361.179688 C 125.257812 361 123.988281 360.816406 122.679688 360.632812 C 122.5 360.085938 122.316406 359.542969 122.132812 358.984375 Z M 122.132812 358.984375 " fill-opacity="1" fill-rule="nonzero"/><path fill="#075d5a" d="M 190.246094 81.578125 C 190.429688 82.304688 190.609375 83.027344 190.796875 83.777344 C 189.890625 84.5 188.984375 85.226562 188.050781 85.972656 C 189.011719 82.8125 189.011719 82.8125 190.246094 81.578125 Z M 190.246094 81.578125 " fill-opacity="1" fill-rule="nonzero"/><path fill="#06605d" d="M 79.832031 40.378906 C 80.015625 40.742188 80.195312 41.105469 80.382812 41.476562 C 79.839844 42.203125 79.296875 42.929688 78.734375 43.675781 C 78.011719 43.496094 77.285156 43.3125 76.539062 43.125 C 77.625 42.21875 78.714844 41.3125 79.832031 40.378906 Z M 79.832031 40.378906 " fill-opacity="1" fill-rule="nonzero"/></svg>